<svg width="248" height="52" viewBox="0 0 248 52" fill="none" xmlns="http://www.w3.org/2000/svg">
<path d="M63.08 26.7181V0.573486H70.4636V20.8632H82.8969V26.7393H63.08V26.7181Z" fill="#1E1E1E"/>
<path d="M85.783 26.7181V0.573486H93.1666V26.7393H85.783V26.7181Z" fill="#1E1E1E"/>
<path d="M106.342 26.7181L95.2027 0.573486H103.18L112.558 23.2264H107.869L117.481 0.573486H124.779L113.598 26.7393H106.342V26.7181Z" fill="#1E1E1E"/>
<path d="M126.308 26.7181V0.573486H138.232C140.608 0.573486 142.667 0.956713 144.385 1.72317C146.104 2.48962 147.44 3.61801 148.395 5.06575C149.329 6.5135 149.817 8.23802 149.817 10.2393C149.817 12.2406 149.35 13.9013 148.395 15.349C147.44 16.7967 146.125 17.8825 144.385 18.6277C142.645 19.3729 140.608 19.7774 138.232 19.7774H130.403L133.67 16.669V26.7181H126.287H126.308ZM133.692 17.4567L130.424 14.0503H137.808C139.357 14.0503 140.502 13.7096 141.245 13.0496C141.988 12.3896 142.391 11.4529 142.391 10.2393C142.391 9.02576 142.009 8.06769 141.245 7.40769C140.481 6.7264 139.335 6.40705 137.808 6.40705H130.424L133.692 3.00059V17.4567ZM142.433 26.7181L135.962 17.18H143.812L150.326 26.7181H142.433Z" fill="#1E1E1E"/>
<path d="M153.868 26.7181V0.573486H161.251V26.7393H153.868V26.7181Z" fill="#1E1E1E"/>
<path d="M179.479 27.2517C177.421 27.2517 175.512 26.911 173.772 26.251C172.032 25.591 170.505 24.6542 169.232 23.4194C167.959 22.2058 166.961 20.7581 166.24 19.0975C165.519 17.4368 165.158 15.6058 165.158 13.6258C165.158 11.6458 165.519 9.81486 166.24 8.15421C166.961 6.49356 167.959 5.06711 169.232 3.83226C170.505 2.59742 172.032 1.66065 173.772 1.00065C175.512 0.340646 177.421 0 179.479 0C181.898 0 184.041 0.425807 185.951 1.27742C187.86 2.12904 189.43 3.34259 190.703 4.93936L186.014 9.19744C185.166 8.19679 184.253 7.45163 183.235 6.91937C182.238 6.38711 181.113 6.13162 179.861 6.13162C178.801 6.13162 177.803 6.30195 176.912 6.66388C176.021 7.02582 175.257 7.5155 174.621 8.1755C173.984 8.8355 173.496 9.62324 173.136 10.5387C172.775 11.4542 172.605 12.4762 172.605 13.6045C172.605 14.7329 172.775 15.7549 173.136 16.6704C173.496 17.5858 173.984 18.3736 174.621 19.0336C175.257 19.6936 176.021 20.2046 176.912 20.5452C177.803 20.8858 178.779 21.0775 179.861 21.0775C181.113 21.0775 182.216 20.822 183.235 20.2897C184.253 19.7575 185.166 19.0123 186.014 18.0116L190.703 22.2697C189.43 23.8452 187.86 25.0588 185.951 25.9104C184.041 26.762 181.898 27.2091 179.479 27.2091V27.2517Z" fill="#1E1E1E"/>
<path d="M201.353 26.7181H193.969V0.573486H201.353V26.7393V26.7181ZM211.919 16.52H200.822V10.3883H211.919V16.52ZM211.389 0.573486H218.772V26.7393H211.389V0.573486Z" fill="#1E1E1E"/>
<path d="M230.588 26.7181V15.6471L232.307 20.0967L220.637 0.573486H228.424L236.847 14.7316H232.349L240.794 0.573486H247.944L236.317 20.118L237.951 15.6684V26.7393H230.567L230.588 26.7181Z" fill="#1E1E1E"/>
<path d="M63.146 51.1002V41.8602H66.5832C67.3683 41.8602 68.026 41.988 68.5989 42.2435C69.1505 42.4989 69.5961 42.8609 69.8931 43.3293C70.1902 43.7977 70.3387 44.3725 70.3387 45.0325C70.3387 45.6925 70.1902 46.246 69.8931 46.7144C69.5961 47.1828 69.1505 47.5448 68.5989 47.8002C68.0472 48.0557 67.3683 48.1835 66.5832 48.1835H63.6765L64.1008 47.7364V51.1215H63.1248L63.146 51.1002ZM64.122 47.8002L63.6977 47.3319H66.5832C67.4956 47.3319 68.1957 47.119 68.6837 46.7357C69.1717 46.3312 69.4051 45.7564 69.4051 45.0325C69.4051 44.3086 69.1717 43.7338 68.6837 43.3293C68.1957 42.9247 67.5168 42.7331 66.5832 42.7331H63.6977L64.122 42.2647V47.8002ZM69.4263 51.1002L67.0712 47.7577H68.1109L70.4872 51.1002H69.4263Z" fill="#1E1E1E"/>
<path d="M83.3423 50.2455H88.88V51.0758H82.3663V41.8358H88.6678V42.6661H83.3423V50.2242V50.2455ZM83.2362 45.9874H88.0949V46.8178H83.2362V45.9874Z" fill="#1E1E1E"/>
<path d="M99.4084 51.1002L103.609 41.8602H104.564L108.765 51.1002H107.747L103.885 42.4351H104.288L100.427 51.1002H99.4084ZM101.063 48.6306L101.36 47.8428H106.707L107.004 48.6306H101.085H101.063Z" fill="#1E1E1E"/>
<path d="M120.031 51.1002V41.8602H121.007V50.2486H126.163V51.079H120.031V51.1002Z" fill="#1E1E1E"/>
<path d="M151.623 50.2455H157.16V51.0758H150.647V41.8358H156.948V42.6661H151.623V50.2242V50.2455ZM151.517 45.9874H156.375V46.8178H151.517V45.9874Z" fill="#1E1E1E"/>
<path d="M171.692 51.1619C171.013 51.1619 170.355 51.0554 169.74 50.8212C169.103 50.587 168.637 50.3103 168.297 49.9483L168.679 49.2032C168.997 49.5225 169.443 49.778 169.995 49.9909C170.546 50.2038 171.119 50.3103 171.713 50.3103C172.307 50.3103 172.753 50.2251 173.135 50.0974C173.495 49.9483 173.771 49.7567 173.941 49.5225C174.111 49.2883 174.196 49.0116 174.196 48.7135C174.196 48.3515 174.089 48.0748 173.877 47.8406C173.665 47.6277 173.389 47.4574 173.071 47.3083C172.732 47.1806 172.371 47.0741 171.968 46.9677C171.565 46.8612 171.161 46.7761 170.758 46.6483C170.355 46.5419 169.973 46.3928 169.655 46.2012C169.337 46.0096 169.04 45.7754 168.849 45.4773C168.637 45.1793 168.531 44.7748 168.531 44.2851C168.531 43.838 168.658 43.4122 168.891 43.029C169.125 42.6457 169.507 42.3477 169.995 42.1135C170.483 41.8793 171.14 41.7728 171.904 41.7728C172.413 41.7728 172.944 41.858 173.453 41.9857C173.962 42.1348 174.386 42.3264 174.768 42.5819L174.429 43.3696C174.047 43.1141 173.623 42.9225 173.177 42.7948C172.732 42.667 172.307 42.6031 171.904 42.6031C171.352 42.6031 170.907 42.6883 170.546 42.8373C170.185 42.9864 169.91 43.178 169.761 43.4335C169.591 43.689 169.507 43.9657 169.507 44.2851C169.507 44.647 169.613 44.9238 169.825 45.158C170.037 45.3709 170.313 45.5412 170.631 45.669C170.949 45.7967 171.331 45.9032 171.734 46.0096C172.137 46.1161 172.541 46.2225 172.944 46.329C173.347 46.4354 173.708 46.5844 174.047 46.7761C174.386 46.9464 174.662 47.2019 174.853 47.4999C175.044 47.798 175.172 48.1812 175.172 48.6709C175.172 49.118 175.044 49.5438 174.811 49.927C174.556 50.3103 174.196 50.6083 173.686 50.8425C173.177 51.0767 172.519 51.2045 171.734 51.2045L171.692 51.1619Z" fill="#1E1E1E"/>
<path d="M188.603 51.1V42.7116H185.378V41.8812H192.804V42.7116H189.579V51.1H188.603Z" fill="#1E1E1E"/>
<path d="M202.161 51.1002L206.362 41.8602H207.317L211.518 51.1002H210.5L206.638 42.4351H207.02L203.159 51.1002H202.14H202.161ZM203.816 48.6306L204.113 47.8428H209.46L209.757 48.6306H203.816Z" fill="#1E1E1E"/>
<path d="M224.1 51.1V42.7116H220.875V41.8812H228.301V42.7116H225.076V51.1H224.1Z" fill="#1E1E1E"/>
<path d="M240.543 50.2455H246.081V51.0758H239.567V41.8358H245.869V42.6661H240.543V50.2242V50.2455ZM240.437 45.9874H245.296V46.8178H240.437V45.9874Z" fill="#1E1E1E"/>
<path d="M0 5.11339V9.7334H17.2708L34.5416 9.75469L34.8174 9.86114C36.8967 10.6276 36.8967 13.4592 34.8174 14.2257L34.5416 14.3321H24.1876L13.8336 14.3534V23.5296L22.9995 30.4276L32.1653 37.3257H38.8063H45.4473L36.5148 30.4489L27.5824 23.5721H31.3378C35.4115 23.5296 35.3266 23.5296 36.3875 23.3166C42.9224 21.9754 46.89 15.2902 45.0229 8.79662C43.856 4.70887 40.44 1.57919 36.2178 0.748864C35.2206 0.557251 36.6421 0.578541 17.5254 0.557251H0V5.11339ZM0.0212172 32.7057V51.1006H45.5109V41.967H9.2507V14.3321H0.0424344V32.727" fill="#1E1E1E"/>
</svg>
