<svg width="26" height="35" viewBox="0 0 26 35" fill="none" xmlns="http://www.w3.org/2000/svg">
<path d="M13.1243 0C6.13493 0 0.44865 5.68628 0.44865 12.6756C0.44865 21.3496 11.7921 34.0835 12.2751 34.6214C12.7287 35.1266 13.5208 35.1258 13.9736 34.6214C14.4565 34.0835 25.8 21.3496 25.8 12.6756C25.7999 5.68628 20.1137 0 13.1243 0ZM13.1243 19.0531C9.60779 19.0531 6.74695 16.1922 6.74695 12.6756C6.74695 9.15907 9.60786 6.29823 13.1243 6.29823C16.6408 6.29823 19.5017 9.15914 19.5017 12.6757C19.5017 16.1922 16.6408 19.0531 13.1243 19.0531Z" fill="#1E1E1E"/>
</svg>
