<svg width="32" height="32" viewBox="0 0 32 32" fill="none" xmlns="http://www.w3.org/2000/svg">
<path d="M1.71237 9.46902H21.7074H1.71237ZM1.71237 9.46902C1.49691 9.46902 1.29029 9.55461 1.13794 9.70695M1.71237 9.46902L1.13794 9.70695M1.13794 9.70695C0.985589 9.8593 0.9 10.0659 0.9 10.2814M1.13794 9.70695L0.9 10.2814M0.9 10.2814V30.2764M0.9 10.2814V30.2764M0.9 30.2764C0.9 30.7253 1.26346 31.0888 1.71237 31.0888M0.9 30.2764L1.71237 31.0888M1.71237 31.0888H21.7074M1.71237 31.0888H21.7074M21.7074 31.0888C21.8141 31.0888 21.9197 31.0677 22.0182 31.0269M21.7074 31.0888L22.0182 31.0269M22.0182 31.0269C22.1168 30.9861 22.2064 30.9263 22.2818 30.8508M22.0182 31.0269L22.2818 30.8508M22.2818 30.8508C22.3572 30.7754 22.4171 30.6858 22.4579 30.5873M22.2818 30.8508L22.4579 30.5873M22.4579 30.5873C22.4987 30.4887 22.5197 30.3831 22.5197 30.2764M22.4579 30.5873L22.5197 30.2764M22.5197 30.2764V10.2814M22.5197 30.2764V10.2814M22.5197 10.2814C22.5197 10.1747 22.4987 10.0691 22.4579 9.97051M22.5197 10.2814L22.4579 9.97051M22.4579 9.97051C22.4171 9.87194 22.3572 9.78239 22.2818 9.70695M22.4579 9.97051L22.2818 9.70695M22.2818 9.70695C22.2064 9.63152 22.1168 9.57168 22.0182 9.53086M22.2818 9.70695L22.0182 9.53086M22.0182 9.53086C21.9208 9.49051 21.8165 9.4695 21.7111 9.46902L22.0182 9.53086ZM30.8626 26.8463C30.5562 26.5399 30.0619 26.5301 29.7435 26.817H29.7344L29.7051 26.8463L28.2374 28.314V12.2475L29.7051 13.7152C29.8632 13.8733 30.0726 13.9545 30.282 13.9545C30.4922 13.9545 30.6971 13.8728 30.8579 13.7162L30.8589 13.7152C31.1754 13.3987 31.1754 12.8817 30.8589 12.5652L28.0019 9.70827C27.6854 9.39177 27.1684 9.39177 26.8519 9.70827L23.995 12.5652C23.6785 12.8817 23.6785 13.3987 23.995 13.7152C24.3115 14.0317 24.8284 14.0317 25.1449 13.7152L26.6127 12.2475V28.314L25.1449 26.8463C24.8284 26.5298 24.3115 26.5298 23.995 26.8463C23.6785 27.1628 23.6785 27.6798 23.995 27.9963L26.8519 30.8533C27.01 31.0113 27.2194 31.0925 27.4288 31.0925C27.639 31.0925 27.8439 31.0108 28.0047 30.8542L28.0057 30.8533L30.8626 27.9963C31.1791 27.6798 31.1791 27.1628 30.8626 26.8463ZM18.281 2.28736L19.7488 3.75509H3.67846L5.1462 2.28736C5.4627 1.97086 5.4627 1.45388 5.1462 1.13738C4.8297 0.820875 4.31271 0.820875 3.99621 1.13738L1.13925 3.99434C0.82275 4.31084 0.82275 4.82782 1.13925 5.14432L3.99621 8.00129C4.15426 8.15934 4.36366 8.24054 4.57308 8.24054C4.78328 8.24054 4.98815 8.15883 5.149 8.00222L5.14995 8.00129C5.46645 7.68479 5.46645 7.1678 5.14995 6.8513L3.68221 5.38357H19.745L18.2773 6.8513L18.277 6.85159C18.1638 6.96573 18.0868 7.1108 18.0559 7.26856C18.0249 7.42632 18.0413 7.58971 18.103 7.73818C18.1646 7.88665 18.2688 8.01356 18.4025 8.10295C18.5361 8.19234 18.6932 8.24021 18.8539 8.24054H18.8542C19.0643 8.24054 19.2692 8.15883 19.4301 8.00223L19.431 8.00129L22.288 5.14432C22.6045 4.82782 22.6045 4.31084 22.288 3.99434L19.431 1.13738C19.1145 0.820875 18.5975 0.820875 18.281 1.13738C17.9645 1.45388 17.9645 1.97086 18.281 2.28736ZM20.895 29.464H2.52848V11.0975H20.895V29.464Z" fill="#B7A05B" stroke="#B7A05B" stroke-width="0.2"/>
</svg>
